<?xml version="1.0" encoding="UTF-8"?>
<svg id="Layer_1" xmlns="http://www.w3.org/2000/svg" version="1.1" viewBox="0 0 2000 2000">
  <!-- Generator: Adobe Illustrator 30.2.0, SVG Export Plug-In . SVG Version: 2.1.1 Build 105)  -->
  <defs>
    <style>
      .st0 {
        fill: #e2e2e2;
      }
    </style>
  </defs>
  <path class="st0" d="M888.76,1435.35c-.06-.45-17.45,15.54-28.05,19.48-13.36,4.97-26.95,9.02-41.16,9.15l-94.39.84c-2.38.02-7.45,4.36-7.49,7.02-.22,14.39,29,16.23,38.98,16.91l44.38,3.02,43.07,4.37c3.3.33,7.98,1.67,11.67,2.49l-1.26,6.5,7.42-4.99c14.76,6.13,25.55,18.35,32.77,34.79,18.4,41.94,15.25,94.91-24.81,116.88-39.07,21.43-64.4,1.12-128.01,46.15l-41.23,29.19-26.14,19.53-17.82,13.03-19.41,13.73-49.56,32.63-.22-7.49-11.87,12.48c-.61.64-1.52,4.47-1.9,5.33s-3.13-.81-4.22-1.15c-39.16,22.83-75.88,24.62-119.67,22.7-29.03-1.27-56.47-18.28-66.4-52.06-7.74-26.34-12.19-53.56-14.65-81.58l-3.19-36.26-1.56-33.63c-.97-20.87-1.54-41.96-.24-63.01l1.62-26.07c.94-15.14,4.89-32.3,11.99-45.33,4.5-8.26,12.51-15.22,17.46-22.12l-3.01-3.73c-.55-.68,1.52-3.95,2.27-4.81l21.42-24.33c3.61-4.1,7.12-7.7,10.43-10.59l-3.75,12.06c4.61-3.78,7.95-6.95,12.74-12.13l-7.7-.99,19.13-21.85-16.11-12.45c-.75-.58-4.41,1.56-4.95.71-.72-1.13-2.42-5.66-3.69-6.55l-25.93-18.33c-19.62-13.87-47.92-38.96-61.05-60.17l-10.46-16.88c-4.25-33.17-5.45-51.95,6.7-85.07l9.85-26.86c2.05-5.58,4.49-10.85,7.15-16.06l8.04-15.78,43.96-86.23c-2.88-4.83-7.06-10.47-11.2-13.34l-47.74-33.16c-14.47-10.05-26.88-22.66-40.76-34.5-4.84-4.13-20.14-22.26-23.93-27.55l-12.67-17.71c-3.32-4.64-7.28-10.08-10.06-14.66l-24.47-40.5c-14.57-24.11-48.12-69.34-66.7-90.93l-31.78-36.91c-.57-.66-.14-6.14.15-7.02s-4.1,1.11-4.66.43c-22.16-27.19-48.46-76.72-59.68-113.85-13.37-44.24-24.34-87.8-30.33-134.01-.25-1.96-1.88-5.28-1.02-6.25l3.53-3.96c-3.13-3.39-4.7-6.88-5.04-12.18-2.27-35.31-4.98-70.02,2.43-103.62,2.78-12.57,12.67-20.3,22.67-22.22,7.82-1.5,15.95-3.82,23.58-3.8l105.52.34,36.88,2.33,37.15,2.6c55.89,3.91,118.48,18.49,171.11,34.49,2.85.87,5.79,5.52,6.87,4.92l4.15-2.29,78.48,28.55c26.71,9.72,51.28,22.64,77.1,35.31l87.33,42.88c3.27-26.35-1.46-40.9-.81-62.89l44.8-1.08c11.52-.28,15.72-10.68,16.85-21.3l7.46-70.27c7.19,1.51,14.18,3.66,20.61,7.63l39.97,24.71c2.66,1.65,8.88,2.29,11.08.4,9.73-8.37,1.25-50.8,13.9-53.59,1.49-.33,4.14,1.79,5.94,3.32,1.16.99,5.37-1.93,7.11-1.48,13.05,3.38,33.66,10.6,47.98,16.64s27.12,2.03,37.08-11.22l18.94-25.2c3.09-4.11,6.41-9.63,10.04-12.92l31.9-28.87c4.07-3.68,11.9-4.96,14.74-1.94l11.64,12.35c20.03,39.26,25.49,74.42,43.78,113.16,3.74.67,10.28-.46,12.99-2.64,8.66-24.53,16.03-36.14,33.99-53.21,13.48-12.81,39.3,7.07,50.9,16.67l28.56,23.62c9.46,7.82,20.09,17.58,31.36,20.97,8.62,2.59,10.81-10.1,12.82-16.37,2.48-7.72,14.29-13.65,20.94-9.08,17.65,12.13,30.31,43.7,39.61,66.77,3.68,9.13,12.09,43.84,14.3,56.07l4.17,23.14c1.05,5.85,3.49,18.88,11.91,16.42l98.89-28.88c7.44-2.17,15.47-2.58,22.67-4.21,5.76-1.31,12.3-3.72,18.74-4.57l32.98-4.32,58.88-4.84,62.23-2.44,49.4-2.29,97.01-1.88,3.93,3.59c1.01.92,4.5-3.75,6.15-3.92,14.23-1.41,33.73-.44,49.39.24,28.44,1.24,55.52-.47,82.81,7.08,5.07,1.4,9.18,2.57,14.92,3.28,25.42,3.15,47.23,25.07,52.51,58.71.73,1.71-.45,1.28-6.24.46l6.14,9.88c2.25,49.47-8.8,90.37-21.34,137.48-21.58,81.04-57.44,147.19-106.02,209.42l-16.75,21.45-26.77,34.37c-6.1,7.83-11.64,15.24-17.44,23.48l-13.8,19.64c1,2.24,1.85,5.73,1.17,7.25-3.91,8.73-6.2,21.55-8.12,30.79l-3.96,19.04c-4.35,20.92-18.57,51.94-33.05,66.4-15.6,15.57-34.43,24.01-54.42,28.82l-35.71,8.6c-12.22,2.94-8.88,25.6-6.5,35.91,12.63,54.72,20.91,85,40.62,136.11,3.07,7.97,5.93,16.5,9.46,23.87,4.37,9.12,9.57,18.91,7.59,30.28-27.84,40.32-64.22,78.16-102.15,103.2-3.45,2.28-12.47,8.06-10.69,11.57l32.29,63.89,13.48,26.91,15.15,30.92,5.42,12.68c34.27,80.12,21.91,114.71,19.94,105.13.27,1.3,1.92,4.91,1.95,6.62.43,21.4-7.8,44.89-16.19,64.51-14.12,33.03-37.56,35.94-65.68,25.32-8.05-3.04-16.33-5.1-23.81-8.5-25.83-11.71-49.85-24.69-74.92-38.25-22.42-12.13-44.33-21.06-67.78-29.94-38.17-14.47-75.82-23.8-115.5-32.37l-125.73-27.18-12.37-11.77c-2.5-4.35-4.45-7.79-7.35-10.78-18.59-19.11-33.91-39.99-48.03-63.72-13.22-22.21,30.14-72.92,71.07-79.05l30.53-4.57,35.37-4.18c3.21-.38,44.54-3.21,41.43-13.26l-2.52-8.15c-1.6-5.18-4.77-10.88-11.4-12.56-40.86-10.37-80.71-20.77-120.46-37.06-13.56-5.56-26.55-12.58-39.39-19.19-16.07-8.26-25.75-20.79-28.26-41.25l-3.54-28.97c-1.64-13.42-3.24-25.47-5.74-39.82-24.61.28-39.32,2.55-63.01,1.17l-5.4-4.62c-4.38,1.91-10.45,4.78-14.53,4.77l-81.16-.18c-3.09,5.02-4.47,12.25-4.94,18.69-1.49,20.09-8.16,71.2-24.84,79.41l.78,6.05v.04h-.01ZM1063.52,1030.89c29.2,33.5,75.76,53.87,115.25,56.92l40.48,3.12c3.76.29,6.94,1.02,10.35-.81,53.16,1.54,111.6-4.34,161.27-31.82,23.89-13.22,37.29-27.07,53.04-50.66l11.28-16.89c2.38-3.56,3.65-13.52,5.44-17.74,16.83-39.75,8.2-81.38-16.6-112.52-3.36-4.22-6.27-8.57-10.46-12.87-13.84-14.18-30.81-32.78-25.02-53.58,7.53-27.04-11.49-52.64-6.12-71.78,9.53-2.25,18.97-3.94,28.65-4.69l61.7-4.74c24.11-1.85,51.13-2.53,73.76-6.76,1.55.18,4.51,2.05,5.79,1.61.97-.34,3.37-3.17,4.43-3.51,14.94-4.74,33.96-11.33,47.88-20.2l32.93-20.99,12.1-8.76,14.77-10.32c11.87-8.3,22.89-16.84,36.05-25.4.25-1.06,3.49,2.55,3.67,4.13s-.25,5.61-.79,7.33l-10.1,32.2c-6.12,19.5-15.25,37.64-19.56,57.5-.88,4.08-1.66,6.73-2.98,10.67-20.51,61.08-19.21,121.35-25.2,144.15l-8.51,32.41c-5.32,20.27-14.24,39.08-25.88,55.55l-13.12,1.27-30.7,2.66c-12.68,1.1-51.7,8.31-50.08,27.6.38,4.58,5.22,13.83,9.65,15.1,34.3,9.86,49.48-.78,79.11,22.37.91.71,6.1.02,5.86,1.01-2.17,8.84,6.51,11.47,14.42,36.57,2.97,9.42,5.56,17.94,9.67,25.31,13.59,24.33,29.03,1.12,41.03,1.74,1.4-6.65,4.85-13.32,9.5-19.58,13.92-18.73,20.69-42.19,31.21-63.59l24.91-50.67,35.14-68.39,49.47-89.17-.48-5.81c-.08-.96,4.8-2.09,5.44-3.24l33.39-59.27,9.9-22.72,8.39-16.19c16.08-31.04,27.47-69.57,22.34-107.33-5.28-38.94-35.78-58.02-66.21-67.14-23.11-6.92-46.91-6.39-71.1-6.75l-38.65-.57c-4.2-.06-7.99-.28-12.37-.02l-42.76,2.53-43.11,1.01c-7.98.19-15.45,1.63-23.44,1.66-8.38.03-16.07.54-24.06,1.49l-19.33,2.3c-6.89.82-13.97,1.35-20.69,2.42l-22.04,3.51-44.92,8.18c-4.43.81-7.85,1.67-11.83,2.94-15.03,4.82-29.89,8.46-45.38,12.82l-97.62,27.43c-16.55,4.65-33.98,12.83-50.66,14.41-33.82,3.21-67.02,1.23-100.58.69-3.91-.06-7.33-.09-11.34.08-27.06,1.16-53.63-.24-80.73.28l-9.52.18-216.5-.92-64.8-4.63c-19.95-1.42-45.24-6.44-64.13-13.64-3.88-1.48-7.03-2.6-11.19-3.76-34.79-9.73-66.94-26.65-99.64-43.65l-32.74-17.01-59.37-30.81-26.92-14.06c-6.94-3.62-13.31-7.8-19.06-12.09l-1.72,6.24c1.7-6.17-68.79-30.57-74.42-31.9l-25.62-6.06c-56.58-13.38-112.93-25.25-170.72-29.4l-35.08-2.52c-6.3-.45-13.36-1.8-19.81-1.75l-64.66.51-19.81,2.46c-6.1.76-14.94,5.87-18.05,10.74-4.34,6.78-4.54,17.19-3.25,25.13,6.21,38.51,13.78,75.69,24.4,111.75l-2.14,5.49c-.5,1.28,3.71,4.57,4.19,6.22l16.15,56.31c4.02,14.01,14.14,41.39,20.74,53.48l6.17,11.3,13.25,23.55,10.54,17.84c.7,1.18-2.02,8.04-.91,7.4.83-.48,5.64-.57,6.31.17l33.04,36.56,11.41,12.84,27.68,28.97c11.39,11.92,22.78,23.26,33.01,36.2,30.35,38.36,39.75,88.18,61.32,126.07,6.87,12.06,19.85,18.85,29,27.92,3.68,3.65,5.75,4.11,10.82,5.27,10.07,2.3,49.87,16.49,47.19-1.23-2.36-15.59-11.32-16.16-20.88-42.46-2.63-7.23-13.92-43.31-8.72-48.35,1.38-1.34,5.3-1.27,7.9-.06l30.82,14.43c1.51.71,3,7.51,4.65,7.38,1.44-.11,3.52-1.19,5.26-2.87,6.88-3.74,22.46,12.1,32.9,1.51,5.2-5.27-4.76-50.8-46.15-52.89-7.48-.38-20.73-8.21-24.82-15.07-8.85-14.84-13.94-28.81-19.12-44.51l-24.3-73.79-23.1-65.97-10.95-27.86-7.44-18.69-7.07-17.54-12.28-32.77c-.43-1.15,2.79-6.11,1.7-6.24l-5.85-.7-5.09-20.69c-.45-1.84-.72-4.32-.71-5.67.02-5.75,17.7,4.91,19.64,6.1l24.58,15.04c14.48,8.86,28.16,18.54,43.08,26.06,2.75,1.38,5.16,2.93,8.29,4.75,46.31,26.78,95.43,46.42,146.88,56.69l17.98,3.59c24.54,4.9,70.28,2.88,95.65-2.43l28.63-5.99c2.18.56,6.59,4.66,8.12,3.14,1.27-1.26,4.59-6.53,6.61-7.28l50.02-18.47,21.36-7.63c6.74-2.41,49.38-16.81,48.66-2.83-.41,8.04-8,17.78-15.64,19.68l-34.2,8.53c-15.34,3.83-26.76,26.39-29.31,42.98-1.42,9.22-1.44,18.44-5.51,25.11-6.6,10.81-17.88,11.6-27.67,14.91l-30.43,10.29c-15.03,5.08-28.87,13.91-42.49,23.54-25.13,17.78-45.34,44.75-54.63,77.82-5.8,20.62-5.99,50.05-4.67,72.22.89,14.89,9.89,27.72,18.37,38.29,69.14,86.21,164.04,124.58,264.44,118.01l26.93-1.76c33.36-2.18,64.42-16.67,89.67-41.59,11.65-11.5,22.75-23.92,28.95-39.03,9.15-22.28,11.43-42.39,8.06-65.78-4.43-30.82-10.54-59.58-22.01-88.12l-13.6-33.82c-3.08-7.66-5.51-14.88-7.95-23.2,3.34-2,8.68-1.78,11.69.09l25.87,16.06c5.11,3.17,11.61,4.65,17.47,5.61l-.97,6.59,37.13-29.19c5.82-4.57,13.09-8.28,20.31-2.46-18.38,62.38-39.93,53.5-40.54,126.05-.2,24.24.54,46.02,6.28,69.55,1.47,6.02,2.99,13.42,5.8,18.68,14.84,27.76,11.85,24.95,31.33,47.3l.06.05h0ZM557.77,779.68c6.18-7.03,7.78-8.67,9.44-18.3,1.51-8.73,11.7-17.52,16.35-24.97,6.26-10.04,10.28-17.22,17.23-29.81-13.19-5.04-23.96-6.3-36.49-8.48l-22.68-3.95-17.36-3.68c-22.94-4.86-44.36-12.16-66.85-19.38-47.19-15.15-57.22-23.5-101.99-44.57-.43,7.61-.4,13.36,1.06,18.43l42.67,147.91c18.97,65.74,45.65,38.1,80.66,67.01,0,1.42-.37,4.44.33,4.17s3.82-1.04,4.41-.52l10.44,9.11c5.28,8.79,12.99,17.7,22.86,11.28,4.44-29.57,23.05-85.03,39.94-104.23l-.02-.02ZM1521.48,901.9c6.9,16.07,15.28,45.93,35.45,43.8,13.27-1.4,27.17-4.37,40.41-8.15l8.45-16.54c17.33-33.92,22.1-43.3,24.31-86.25l1.4-27.23c.65-12.63,3.48-61.11-5.09-64.76-2.22-.95-6.63-1.02-9.96-.3-27.66,5.95-54.6,12.75-82.39,12.67-4.88-.01-7.49,1.4-12.84,1.85l-37.24,3.09c-6.77.56-12.8,3.1-19.47,3.12-7.57.02-13.32-.31-19.96,6.16,6.6,15.37,18.22,34.67,25.95,45.88.55.8-.31,5.26.37,5.43l3.27.85c16.55,25.69,34.57,50.65,47.33,80.38h0ZM1508.63,1066.38c-1.15-1.31-5.9-3.1-7.59-2.57l-109.24,34.07-54.32,14.64c-20.94,5.64-41.49,9.85-62.75,12.79l-31.28,4.31c-7.9,1.09-16.09,1.42-23.74,1.72l-62.18,2.45-33.63.55c-5.92.1-10.39-3.34-16.4-8.47l-1,8.33-25.97-.85-59.67-2.06-33.43-2.12-26.28-2.13c-69.57-5.65-144.17-20.31-211.7-38.6-1.11-.3-3.08-4.66-3.73-4.08-.46.41-1.24,1.25-2.59,2.74-36.24-12.71-72.91-24.19-108.33-41.65l-37.23-18.35-22.16-10.3c-12.29-5.71-23.19-14.81-38.42-13.69,2.4,13.53,59.76,44.54,70.62,50.47,38.02,20.77,75.51,39.23,114.81,56.62,28.85,12.77,56.97,21.57,86.68,31.1,3.44,1.1,8.47,6.23,9.99,9.43s.8,12-.96,15.17c-7.18.54-17.03.14-24.09-2.2l-46.98-15.56-37.14-13.14-10.64-4.12-28.18-12.19-45.18-22.69c-14.62-7.34-27.96-15.74-41.96-25.53l-45.55-31.85c-1.31-.91-5.17-1.91-5.24-1.95l-7.83-8.75-14.59-17.04c-1.25-1.46-3.63-4.85-4.75-3.91l-3.79,3.18-22.11-18.78c-10.28-8.73-21.04-16.58-32.91-23.7-2.73-1.64-9.51.84-11.99,2.53-2.13,1.45-5.22,9.51-2.93,11.74l57.28,55.62,33.55,31.75,42.52,36.56c25.19,21.65,50.93,40.89,77.9,59.43,20.84,14.33,5.75,8.94,25.47,22.88,5.27-4.97,6.74-1.95,10.82.75,63.96,42.25,140.11,78.4,213.86,87.92,4.79.62,42.88,4.8,41.31-4.92l-21.08-8.76-30.95-12.59c-2-.81-4.7-6.6-3.72-8.39,4.53-8.27,34.35-4.97,44.26-3.96l149.33,15.19,14.12,1.81,63.99,3.03,14.3,2.55,59.86,2.16c4.12.15,7.52.54,11.69-.06,9.21-1.31,18.62-.06,27.93-.23l19.7-.37c17.53-.33,34.18-.13,51.19-2.78,66.04-10.3,91.22-28.11,145.52-67.53l16.91-12.28,34.41-25.92,10.35-8.18,24.36-19.2c5.91-4.66,10.31-8.29,13.08-16.89l-15.89-3.64c-3.01-.69-5.63.38-8.57,1.46-24.4,9.01-49.09,18.68-72.47,31.94-44.19,25.08-117.16,62.92-164.7,67.28-8.25.76-14.59-6.19-15.53-13.38-1.14-8.79,2.03-14.13,9.03-18.48,10.71-6.65,21.87-14.49,32.83-19.31l40.17-17.68,94.35-42.59c5.32-2.4,36.69-20.11,29.15-28.72l.03-.03h0ZM813.75,1378.94l-26.09,18.87c-8.23,5.95-18.08,4.9-26.45-.43.57-5.15-.49-15.74,1.23-20.51l13.23-36.74c2.15-5.97,1.02-15.22-2.51-18.71-11.96-11.84-42.61,16.27-46.85,21.66l-10.23,13.02-22.22,24.38c-3.19,3.5-9.27,6-13.51,5.08-3.41-.74-8.7-6.71-9.57-11.29-3.61-19,2.19-36.25,9.79-53.25,6.3-14.1,17.04-24.79,26.32-36.61l24.29-30.95-16.53-19.8-8.17.55c-16.83-12.6-33.56-23.99-52.51-32.22-3.71-1.61-5.16-2.48-8.33-7.15-15.43,9.87-18.86,23.19-36.8,40.76l-29.76-34.84c-5.14-6.02-13.7-16.25-20.42-10.51-7.32,6.26.73,34.87,3.17,46.83-2.57,4.29-10.05,5.83-15.94,7.59-15.64,4.66-25.89,19.95-36.33,33.18-12.62,15.99-18.19,36.53-22.44,57.36l-13.2,9.73c-17.82-16.98,6.34-29.45-19.87-58.16-14.79-16.21-33.75-23.91-54.32-26.61-8.67-1.14-18.86-3.31-26.85,1.14-3.83,2.14-8.05,8.06-8.38,11.78-.29,3.25,1.58,10.42,3.53,13.53,20.06,32.04,45.37,57.8,75.75,76.2l12.7,7.69c26.2,15.86,31.15,18.02,61.26,27.2,50.1,15.28,99.84,21.42,151.62,23.68,51.31,2.24,101.3,1.42,152.06-5.33,15.1-2.01,26.99-9.37,38.04-22.39-6.82-9.83-14.14-17.6-22.2-24.61-7.83,4.11-16.57,4.87-23.5,9.89h0ZM1353.32,1479.07l23.19,1.6,49.99.82c1.16.02,4.33,2.2,5.48,2.28s3.31-3.75,4.63-3.86c23.55-1.82,60.1-6.2,83.59-11.87,27.91-6.73,52.16-21.63,75.53-39.17,21.27-15.96,41.67-30.99,58.47-52.94,5.09-6.66,5.89-14.38,1.71-22.34-6.15-11.71-30.1-42.85-36.01-32.17-4.94,8.93,2.53,20.84-1.72,38.69l-19.37.13c-35.71-31.04-36.07-54.58-67.63-82.1-5.04,5.42-10.1,11.23-13.49,15.8,5.94,5.93-5.54,29.1-13.72,34.28-4.9,3.1-12.28-.41-15.06-5.91-11.37-22.5-4.92-30.33-16.97-58.83-1.9-4.5-3.91-9.16-6.17-11.35-10.88-10.59-33.32,11.83-41.24,18.09-36.1,28.53-53.53,15.49-60.83,24.29-15.58,18.75,47.33,75.5,37.55,113.89-5.94,3.63-14.82,2.45-21.66-.42-18.44-7.74-32.45-18.74-45.31-36.24-1.05-1.42-4.51-3.1-4.86-1.65l-1.49,6.13c-18.58-16.84-43.81-12.89-57.87,9.41,1.37,7.4,5.13,14.71,8.14,21.69l9.44,21.85-7.23,8.4-21.72-16.54c-11.86-9.03-22.76-22.92-37.02-27.01-20.5-5.88-38.65-13.11-57.2-24.72l-26.46-16.56c-1.43-.9-5.8-1.04-7.14-.73-6.04,1.39-7.88,33.87,20.95,49.29,63.75,34.11,127.03,58.34,195.17,74.95,1.06.61,4.89,2.74,6.32,2.84v-.02h.01ZM587.42,1528.23l81.75.19c.69-18.46.91-33.75.06-51-.43-8.66-12.73-7.59-17.59-8.5l-27.38-5.13-18.19-3.39c-33.18-6.19-64.96-15.36-97.83-24.03-5.48-1.44-12.4-3.16-17.33-3.94-15.44-2.42-25.71,12.5-37.06,20-9.01,5.96-24.41,16.6-30.28,30.36,20.85,15.24,41,26.54,63.2,34.59,2.06.75,7.63-.2,9.52.84l14.75,8.11c12.61-3.4,25.62-.66,38.25-.03l38.13,1.91v.02h0ZM1529.97,1584.01l32.03-2.37c8.98-.67,16.41-.65,24.38-6.21-.15-6.88-17.22-45.4-17.23-37.94.02-24.19-29.79-20.15-56.3-22.05l-51.41-3.68c-1.43-.1-4.91-5.12-5.87-4.25l-3.65,3.32-79.52-.63c-12.88-.1-26.08-1.16-38.16,4.99-5.28,2.69-9.15,17.08-7.51,23.23,6.69,25.07,132.96,42.97,155.17,43.99l38.55,1.77c2.98.14,5.97.11,9.5-.15l.02-.02h0Z"/>
</svg>